<?xml version="1.0" standalone="no"?>
<!DOCTYPE svg PUBLIC "-//W3C//DTD SVG 20010904//EN"
 "http://www.w3.org/TR/2001/REC-SVG-20010904/DTD/svg10.dtd">
<svg version="1.0" xmlns="http://www.w3.org/2000/svg"
 width="189.000000pt" height="189.000000pt" viewBox="0 0 189.000000 189.000000"
 preserveAspectRatio="xMidYMid meet">
<metadata>
Created by potrace 1.11, written by Peter Selinger 2001-2013
</metadata>
<g transform="translate(0.000000,189.000000) scale(0.100000,-0.100000)"
fill="#000000" stroke="none">
<path d="M334 1223 c-12 -2 -40 -20 -62 -39 l-41 -34 -3 32 -3 33 -112 0 -113
0 0 -272 0 -273 114 0 114 0 0 161 c1 178 7 199 63 199 51 0 59 -26 59 -202
l0 -158 114 0 114 0 0 161 c0 177 7 199 63 199 51 0 59 -26 59 -202 l0 -158
114 0 114 0 0 203 c-1 111 -5 216 -11 232 -17 50 -48 86 -91 106 -77 35 -167
21 -233 -36 l-41 -35 -16 25 c-31 48 -125 75 -202 58z"/>
<path d="M1312 1219 c-13 -5 -38 -20 -57 -34 l-34 -26 -3 28 -3 28 -100 1
c-55 0 -105 -4 -111 -8 -9 -6 -12 -106 -12 -353 l0 -345 114 0 114 0 0 112 0
111 23 -19 c53 -48 77 -56 147 -52 54 3 76 9 109 33 135 93 155 350 36 470
-56 55 -154 79 -223 54z m53 -204 c14 -13 26 -31 26 -40 1 -8 2 -21 3 -27 3
-21 -14 -65 -32 -81 -27 -25 -66 -27 -99 -7 -29 17 -51 59 -47 88 1 6 2 19 3
27 2 31 48 65 86 65 25 0 44 -8 60 -25z"/>
<path d="M1659 888 c-1 -15 -1 -176 0 -200 1 -16 13 -18 116 -18 l115 0 0 115
0 115 -115 0 c-85 0 -115 -3 -116 -12z"/>
</g>
</svg>
